<svg xmlns="http://www.w3.org/2000/svg" version="1.1" xmlns:xlink="http://www.w3.org/1999/xlink" xmlns:svgjs="http://svgjs.dev/svgjs" width="1000" height="623" viewBox="0 0 1000 623"><g transform="matrix(1,0,0,1,-0.6060606060606233,0.2522267206477409)"><svg viewBox="0 0 396 247" data-background-color="#ffffff" preserveAspectRatio="xMidYMid meet" height="623" width="1000" xmlns="http://www.w3.org/2000/svg" xmlns:xlink="http://www.w3.org/1999/xlink"><g id="tight-bounds" transform="matrix(1,0,0,1,0.2400000000000091,-0.09999999999999432)"><svg viewBox="0 0 395.52 247.2" height="247.2" width="395.52"><g><svg></svg></g><g><svg viewBox="0 0 395.52 247.2" height="247.2" width="395.52"><g transform="matrix(1,0,0,1,116.02621276595744,37.08)"><svg viewBox="0 0 163.4675744680851 173.04" height="173.04" width="163.4675744680851"><g><svg viewBox="0 0 163.4675744680851 173.04" height="173.04" width="163.4675744680851"><g><svg viewBox="0 0 163.4675744680851 173.04" height="173.04" width="163.4675744680851"><g><svg viewBox="0 0 163.4675744680851 173.04" height="173.04" width="163.4675744680851"><g id="textblocktransform"><svg viewBox="0 0 163.4675744680851 173.04" height="173.04" width="163.4675744680851" id="textblock"><g><svg viewBox="0 0 163.4675744680851 173.04" height="173.04" width="163.4675744680851"><g transform="matrix(1,0,0,1,0,0)"><svg width="163.4675744680851" viewBox="4.349999904632568 -35.25 33.30000305175781 35.25" height="173.04" data-palette-color="#52add7"><path d="M21.1-9.7L34.3-35.25 37.65-35.25 37.65 0 33.9 0 33.95-27.3 22.5-5.6 19.6-5.6 8.1-27.1 8.15 0 4.35 0 4.35-35.25 7.75-35.25 21.1-9.7Z" opacity="1" transform="matrix(1,0,0,1,0,0)" fill="#52add7" class="undefined-text-0" data-fill-palette-color="primary" id="text-0"></path></svg></g></svg></g></svg></g></svg></g><g></g></svg></g></svg></g></svg></g><g mask="url(#4e803e05-4045-4571-b814-abdfe4574841)"><g transform="matrix(4.378571428571428, 0, 0, 4.378571428571428, 89.21521027701242, 1)"><svg xmlns="http://www.w3.org/2000/svg" data-name="Glyph Icon" viewBox="7.210000038146973 4 49.58000183105469 56" x="0" y="0" height="56" width="49.58000183105469" class="icon-none" data-fill-palette-color="accent" id="none"><path d="M49.13 20.84l-16-9.26V4L55.7 17.05ZM32 50.52L16 41.26V22.74l16-9.26 16 9.26V41.26ZM30.91 11.58l-16 9.26L8.3 17.05 30.91 4ZM13.77 22.74V41.26L7.21 45.05V19Zm1.1 20.42l16 9.26V60L8.3 47Zm18.22 9.26l16-9.26L55.7 47 33.09 60ZM50.23 41.26V22.74L56.79 19v26.1Z" fill="#38639e" data-fill-palette-color="accent"></path></svg></g></g></svg></g><defs><mask id="4e803e05-4045-4571-b814-abdfe4574841"><rect width="640" height="400" fill="white"></rect><rect width="179.81433191489364" height="254.74118208" fill="black" y="-3.7705910399999993" x="107.85283404255317" id="transform-me"></rect></mask></defs></svg><rect width="395.52" height="247.2" fill="none" stroke="none" visibility="hidden"></rect></g></svg></g></svg>